<svg width="2393" height="585" viewBox="0 0 2393 585" fill="none" xmlns="http://www.w3.org/2000/svg">
<rect x="70.3823" y="49.2671" width="485.638" height="485.638" rx="182.994" fill="white"/>
<path d="M224.485 206.749H226.244V204.989V78.7091V76.748L224.295 76.9598C191.741 80.4964 161.399 95.1415 138.378 118.43C115.358 141.718 101.064 172.226 97.9034 204.819L97.7164 206.749H99.6548H224.485Z" stroke="#18002C" stroke-width="3.51912" stroke-miterlimit="10"/>
<path d="M379.002 77.9355V76.176H377.242H245.092H243.333V77.9355V204.99V206.749H245.092H361.998H363.182L363.628 205.651C364.932 202.438 366.867 199.519 369.319 197.067C371.772 194.615 374.691 192.679 377.904 191.375L379.002 190.93V189.745V77.9355Z" stroke="#18002C" stroke-width="3.51912" stroke-miterlimit="10"/>
<path d="M526.896 206.747H528.835L528.648 204.818C525.417 171.493 510.549 140.371 486.655 116.919C462.76 93.4658 431.367 79.1812 397.987 76.5731L396.091 76.4249V78.3273V189.743V190.928L397.19 191.374C400.405 192.676 403.325 194.61 405.779 197.062C408.232 199.514 410.168 202.435 411.471 205.649L411.917 206.747H413.102H526.896Z" stroke="#18002C" stroke-width="3.51912" stroke-miterlimit="10"/>
<path d="M379.002 240.839V239.655L377.904 239.209C374.69 237.905 371.77 235.969 369.318 233.515C366.866 231.062 364.931 228.141 363.628 224.927L363.183 223.828H361.998H245.092H243.333V225.588V344.534V345.718L244.43 346.164C248.327 347.748 251.782 350.256 254.496 353.472C257.211 356.687 259.104 360.513 260.013 364.621L260.263 365.752L261.4 365.969L376.912 388.048L379.002 388.447V386.32V240.839Z" stroke="#18002C" stroke-width="3.51912" stroke-miterlimit="10"/>
<path d="M529.289 225.595V223.835H527.53H413.13H411.945L411.5 224.933C410.196 228.148 408.26 231.067 405.807 233.519C403.354 235.972 400.433 237.906 397.218 239.209L396.119 239.654V240.84V390.219V391.674L397.548 391.947L518.979 415.173L520.455 415.456L520.965 414.041C526.48 398.725 529.297 382.568 529.289 366.289C529.289 366.289 529.289 366.288 529.289 366.288V225.595Z" stroke="#18002C" stroke-width="3.51912" stroke-miterlimit="10"/>
<path d="M208.888 362.425H210.114L210.539 361.274C211.843 357.74 213.903 354.533 216.575 351.877L216.584 351.868C219.023 349.409 221.935 347.471 225.145 346.172L226.244 345.727V344.541V225.595V223.835H224.484H99.0491H97.2895V225.595V360.665V362.425H99.0491H208.888Z" stroke="#18002C" stroke-width="3.51912" stroke-miterlimit="10"/>
<path d="M226.244 395.632V394.447L225.146 394.001C219.984 391.907 215.634 388.205 212.742 383.443L212.229 382.597H211.239H100.224H98.2142L98.4803 384.59C102.699 416.176 117.387 445.437 140.195 467.693C163.002 489.949 192.614 503.916 224.294 507.361L226.244 507.573V505.612V395.632Z" stroke="#18002C" stroke-width="3.51912" stroke-miterlimit="10"/>
<path d="M512.186 433.616L513.33 431.502L510.969 431.051L258.634 382.817L257.447 382.591L256.809 383.616C253.902 388.29 249.591 391.925 244.492 394.001L243.396 394.448V395.631V506.385V508.144H245.156L387.469 508.144L387.474 508.144C413.041 508.078 438.117 501.121 460.063 488.005C482.01 474.89 500.016 456.101 512.186 433.616Z" stroke="#18002C" stroke-width="3.51912" stroke-miterlimit="10"/>
<path d="M224.485 78.7091V204.989H99.6548C102.776 172.799 116.893 142.667 139.63 119.667C162.366 96.6661 192.333 82.2019 224.485 78.7091Z" fill="#F6F2FF"/>
<path d="M208.888 360.665H99.0491V225.595H224.484V344.541C221.054 345.93 217.941 348.001 215.335 350.629C212.481 353.465 210.281 356.89 208.888 360.665Z" fill="#C8BCFF"/>
<path d="M224.484 395.632V505.612C193.195 502.209 163.95 488.415 141.424 466.433C118.897 444.452 104.391 415.553 100.224 384.357H211.239C214.327 389.441 218.972 393.395 224.484 395.632Z" fill="#8400F2"/>
<path d="M510.638 432.779C498.619 454.985 480.836 473.542 459.161 486.495C437.486 499.448 412.72 506.319 387.469 506.385H245.156V395.631C250.598 393.415 255.2 389.535 258.303 384.546L510.638 432.779Z" fill="#FFDA7A"/>
<path d="M377.242 77.9355V189.745C373.811 191.137 370.694 193.204 368.075 195.823C365.457 198.441 363.39 201.558 361.998 204.99H245.092V77.9355H377.242Z" fill="#FFDA7A"/>
<path d="M526.896 204.988H413.102C411.71 201.555 409.642 198.437 407.022 195.818C404.403 193.199 401.283 191.133 397.85 189.743V78.3273C430.817 80.9032 461.823 95.0113 485.422 118.174C509.021 141.337 523.706 172.074 526.896 204.988Z" fill="#C8BCFF"/>
<path d="M377.242 240.839V386.32L261.731 364.241C260.76 359.854 258.739 355.769 255.841 352.336C252.942 348.904 249.254 346.226 245.092 344.534V225.588H361.998C363.389 229.021 365.455 232.139 368.074 234.759C370.692 237.379 373.81 239.447 377.242 240.839Z" fill="#8400F2"/>
<path d="M527.53 225.595V366.289C527.537 382.365 524.756 398.32 519.309 413.445L397.878 390.219V240.84C401.312 239.449 404.431 237.383 407.051 234.764C409.671 232.145 411.738 229.027 413.13 225.595H527.53Z" fill="#F6F2FF"/>
<path d="M234.795 351.843H234.788C224.717 351.843 216.552 360.007 216.552 370.079V370.086C216.552 380.157 224.717 388.322 234.788 388.322H234.795C244.867 388.322 253.031 380.157 253.031 370.086V370.079C253.031 360.007 244.867 351.843 234.795 351.843Z" fill="#FFDA7A"/>
<path d="M388.257 197.056H388.25C378.179 197.056 370.014 205.221 370.014 215.293V215.3C370.014 225.371 378.179 233.536 388.25 233.536H388.257C398.329 233.536 406.493 225.371 406.493 215.3V215.293C406.493 205.221 398.329 197.056 388.257 197.056Z" fill="#C8BCFF"/>
<path d="M792.456 352.226C788.726 363.415 783.131 372.927 775.671 380.759C768.211 388.406 759.446 394.187 749.375 398.104C739.304 402.02 728.208 403.978 716.085 403.978C698.368 403.978 682.982 400.155 669.928 392.509C656.873 384.862 646.802 373.952 639.715 359.779C632.628 345.605 629.085 328.634 629.085 308.865C629.085 289.097 632.628 272.125 639.715 257.952C646.802 243.778 656.873 232.868 669.928 225.222C682.982 217.575 698.275 213.752 715.806 213.752C727.928 213.752 738.838 215.43 748.536 218.787C758.42 222.144 766.812 227.18 773.713 233.894C780.613 240.607 785.928 249 789.658 259.071L761.404 271.659C757.674 260.656 752.266 252.636 745.179 247.601C738.092 242.379 728.86 239.768 717.484 239.768C706.108 239.768 696.13 242.472 687.552 247.881C678.973 253.289 672.259 261.122 667.41 271.379C662.748 281.637 660.416 294.132 660.416 308.865C660.416 323.412 662.654 335.907 667.13 346.351C671.606 356.608 678.04 364.441 686.433 369.849C694.825 375.258 704.896 377.962 716.645 377.962C728.021 377.962 737.812 375.071 746.018 369.29C754.41 363.322 760.378 354.463 763.922 342.714L792.456 352.226Z" fill="white"/>
<path d="M887.735 311.383C887.735 302.058 885.124 294.878 879.902 289.843C874.867 284.621 867.873 282.01 858.921 282.01C850.529 282.01 843.349 283.968 837.381 287.884C831.413 291.801 827.03 298.142 824.233 306.907L799.056 296.277C802.599 284.9 809.5 275.762 819.757 268.862C830.201 261.961 843.629 258.511 860.04 258.511C871.23 258.511 881.114 260.376 889.693 264.106C898.272 267.649 904.986 273.058 909.835 280.331C914.87 287.605 917.388 296.929 917.388 308.306V370.689C917.388 377.589 920.838 381.039 927.738 381.039C931.095 381.039 934.359 380.573 937.529 379.64L935.851 400.342C931.562 402.393 926.153 403.419 919.626 403.419C913.658 403.419 908.25 402.393 903.401 400.342C898.738 398.104 895.008 394.84 892.211 390.551C889.6 386.075 888.294 380.573 888.294 374.046V372.087L894.449 371.808C892.77 379.081 889.32 385.142 884.098 389.991C878.876 394.653 872.815 398.197 865.915 400.621C859.015 402.859 852.021 403.978 844.934 403.978C836.169 403.978 828.243 402.58 821.156 399.782C814.255 396.985 808.754 392.788 804.651 387.194C800.734 381.412 798.776 374.325 798.776 365.933C798.776 355.489 802.133 346.91 808.847 340.197C815.747 333.483 825.445 328.913 837.94 326.489L892.211 315.859L891.931 336.84L852.487 344.952C844.654 346.444 838.78 348.589 834.863 351.386C830.947 354.184 828.989 358.287 828.989 363.695C828.989 368.917 830.947 373.113 834.863 376.284C838.966 379.267 844.375 380.759 851.088 380.759C855.751 380.759 860.227 380.2 864.516 379.081C868.992 377.962 873.002 376.19 876.545 373.766C880.089 371.155 882.793 367.891 884.658 363.975C886.709 359.872 887.735 355.023 887.735 349.428V311.383Z" fill="white"/>
<path d="M946.848 401.181V261.309H973.424L974.823 284.807C979.672 275.855 986.106 269.235 994.125 264.945C1002.33 260.656 1011 258.511 1020.14 258.511C1030.21 258.511 1039.44 260.842 1047.84 265.505C1056.42 269.981 1062.85 276.788 1067.14 285.926C1070.12 279.772 1074.23 274.643 1079.45 270.54C1084.67 266.437 1090.45 263.453 1096.79 261.588C1103.13 259.537 1109.38 258.511 1115.53 258.511C1124.49 258.511 1132.88 260.376 1140.71 264.106C1148.54 267.836 1154.89 273.524 1159.73 281.17C1164.58 288.817 1167.01 298.608 1167.01 310.544V401.181H1137.07V315.299C1137.07 303.923 1134.37 295.717 1128.96 290.682C1123.55 285.646 1116.65 283.129 1108.26 283.129C1101.73 283.129 1095.67 284.714 1090.08 287.884C1084.67 291.055 1080.29 295.81 1076.93 302.151C1073.57 308.306 1071.89 315.952 1071.89 325.09V401.181H1041.96V315.299C1041.96 303.923 1039.26 295.717 1033.85 290.682C1028.44 285.646 1021.54 283.129 1013.15 283.129C1007.55 283.129 1001.96 284.621 996.363 287.605C990.768 290.588 986.106 295.251 982.376 301.592C978.646 307.933 976.781 316.325 976.781 326.769V401.181H946.848Z" fill="white"/>
<path d="M1192.81 459.927V261.309H1219.38L1221.62 300.473L1217.7 295.717C1219.94 288.444 1223.39 282.01 1228.05 276.415C1232.72 270.82 1238.5 266.437 1245.4 263.267C1252.48 260.096 1260.22 258.511 1268.62 258.511C1279.99 258.511 1290.34 261.402 1299.67 267.183C1308.99 272.965 1316.36 281.264 1321.77 292.08C1327.18 302.711 1329.88 315.672 1329.88 330.965C1329.88 346.258 1327.08 359.406 1321.49 370.409C1316.08 381.226 1308.62 389.525 1299.11 395.306C1289.78 401.088 1279.34 403.978 1267.78 403.978C1255.84 403.978 1245.68 400.901 1237.28 394.747C1228.89 388.406 1222.92 380.386 1219.38 370.689L1222.74 365.933V459.927H1192.81ZM1261.34 379.64C1273.46 379.64 1282.88 375.351 1289.6 366.772C1296.5 358.193 1299.95 346.351 1299.95 331.245C1299.95 316.138 1296.59 304.296 1289.88 295.717C1283.16 286.952 1273.84 282.569 1261.9 282.569C1254.07 282.569 1247.17 284.621 1241.2 288.724C1235.42 292.64 1230.85 298.235 1227.49 305.508C1224.32 312.595 1222.74 321.174 1222.74 331.245C1222.74 341.129 1224.32 349.708 1227.49 356.981C1230.66 364.255 1235.14 369.849 1240.92 373.766C1246.7 377.682 1253.51 379.64 1261.34 379.64Z" fill="white"/>
<path d="M1398.4 403.978C1389.27 403.978 1380.78 402.3 1372.95 398.943C1365.3 395.586 1359.15 390.178 1354.48 382.718C1349.82 375.258 1347.49 365.56 1347.49 353.624V261.309H1377.42V346.071C1377.42 358.753 1380.13 367.518 1385.54 372.367C1390.94 377.03 1398.5 379.361 1408.2 379.361C1412.86 379.361 1417.33 378.615 1421.62 377.123C1426.1 375.444 1430.11 372.927 1433.65 369.57C1437.2 366.026 1439.9 361.55 1441.76 356.142C1443.82 350.734 1444.84 344.393 1444.84 337.119V261.309H1474.77V401.181H1448.48L1447.08 378.522C1442.23 387.287 1435.7 393.721 1427.5 397.824C1419.29 401.927 1409.59 403.978 1398.4 403.978Z" fill="white"/>
<path d="M1555.11 403.978C1541.12 403.978 1528.34 401.274 1516.78 395.866C1505.22 390.457 1496.08 382.811 1489.37 372.927L1510.07 355.023C1514.17 362.669 1520.05 368.824 1527.69 373.486C1535.52 377.962 1544.85 380.2 1555.67 380.2C1564.25 380.2 1571.05 378.708 1576.09 375.724C1581.12 372.74 1583.64 368.544 1583.64 363.136C1583.64 359.592 1582.43 356.515 1580 353.904C1577.77 351.107 1573.38 348.962 1566.86 347.47L1537.48 341.315C1522.56 338.332 1511.93 333.576 1505.59 327.049C1499.25 320.335 1496.08 311.849 1496.08 301.592C1496.08 293.945 1498.32 286.859 1502.79 280.331C1507.27 273.804 1513.8 268.582 1522.38 264.665C1531.14 260.563 1541.59 258.511 1553.71 258.511C1567.7 258.511 1579.63 261.029 1589.52 266.064C1599.4 270.913 1606.95 277.907 1612.17 287.045L1591.47 304.389C1587.93 296.929 1582.71 291.428 1575.81 287.884C1568.91 284.154 1561.73 282.289 1554.27 282.289C1548.3 282.289 1543.17 283.035 1538.88 284.527C1534.59 286.019 1531.33 288.071 1529.09 290.682C1526.85 293.293 1525.73 296.37 1525.73 299.913C1525.73 303.643 1527.13 306.907 1529.93 309.704C1532.73 312.502 1537.76 314.647 1545.04 316.138L1576.93 322.852C1590.35 325.463 1599.77 329.939 1605.18 336.28C1610.78 342.434 1613.57 349.988 1613.57 358.939C1613.57 367.891 1611.24 375.817 1606.58 382.718C1601.92 389.432 1595.2 394.653 1586.44 398.383C1577.67 402.113 1567.23 403.978 1555.11 403.978Z" fill="white"/>
<path d="M1709.61 403.978C1692.26 403.978 1677.25 400.155 1664.57 392.509C1651.89 384.862 1642 374.046 1634.92 360.058C1627.83 345.885 1624.29 328.82 1624.29 308.865C1624.29 289.283 1627.92 272.405 1635.2 258.231C1642.66 244.058 1653.1 233.148 1666.53 225.501C1680.14 217.668 1695.71 213.752 1713.25 213.752C1732.45 213.752 1747.93 217.295 1759.68 224.382C1771.62 231.469 1781.13 242.472 1788.22 257.392L1760.52 270.54C1756.98 260.283 1751.1 252.636 1742.9 247.601C1734.88 242.379 1725.09 239.768 1713.53 239.768C1701.96 239.768 1691.8 242.472 1683.03 247.881C1674.45 253.289 1667.74 261.215 1662.89 271.659C1658.04 281.916 1655.62 294.318 1655.62 308.865C1655.62 323.598 1657.76 336.187 1662.05 346.631C1666.34 356.888 1672.78 364.721 1681.35 370.129C1690.12 375.538 1700.84 378.242 1713.53 378.242C1720.43 378.242 1726.86 377.403 1732.83 375.724C1738.8 373.859 1744.02 371.248 1748.49 367.891C1752.97 364.348 1756.42 359.965 1758.84 354.743C1761.45 349.335 1762.76 342.994 1762.76 335.721V330.405H1709.05V306.068H1789.34V401.181H1766.96L1765.28 363.975L1770.87 366.772C1766.4 378.521 1758.94 387.66 1748.49 394.187C1738.24 400.715 1725.27 403.978 1709.61 403.978Z" fill="white"/>
<path d="M1863.09 403.978C1853.95 403.978 1845.46 402.3 1837.63 398.943C1829.98 395.586 1823.83 390.178 1819.17 382.718C1814.5 375.258 1812.17 365.56 1812.17 353.624V261.309H1842.11V346.071C1842.11 358.753 1844.81 367.518 1850.22 372.367C1855.63 377.03 1863.18 379.361 1872.88 379.361C1877.54 379.361 1882.02 378.615 1886.3 377.123C1890.78 375.444 1894.79 372.927 1898.33 369.57C1901.88 366.026 1904.58 361.55 1906.45 356.142C1908.5 350.734 1909.52 344.393 1909.52 337.119V261.309H1939.46V401.181H1913.16L1911.76 378.522C1906.91 387.287 1900.39 393.721 1892.18 397.824C1883.97 401.927 1874.28 403.978 1863.09 403.978Z" fill="white"/>
<path d="M1996.57 261.309V401.181H1966.64V261.309H1996.57Z" fill="white"/>
<path d="M2077.53 403.978C2065.97 403.978 2055.43 401.088 2045.92 395.306C2036.6 389.525 2029.23 381.226 2023.82 370.409C2018.41 359.592 2015.71 346.631 2015.71 331.524C2015.71 315.859 2018.6 302.618 2024.38 291.801C2030.16 280.984 2037.9 272.778 2047.6 267.183C2057.3 261.402 2067.93 258.511 2079.49 258.511C2091.43 258.511 2101.5 261.775 2109.7 268.302C2117.91 274.83 2123.41 283.315 2126.21 293.759L2122.85 296.836V198.366H2152.78V401.181H2126.21L2123.97 363.136L2127.89 363.415C2126.58 371.808 2123.5 379.081 2118.65 385.235C2113.81 391.203 2107.74 395.866 2100.47 399.223C2093.38 402.393 2085.74 403.978 2077.53 403.978ZM2083.97 379.92C2091.99 379.92 2098.89 377.869 2104.67 373.766C2110.45 369.663 2114.92 363.882 2118.09 356.422C2121.27 348.962 2122.85 340.01 2122.85 329.566C2122.85 319.868 2121.27 311.569 2118.09 304.669C2114.92 297.582 2110.45 292.174 2104.67 288.444C2099.07 284.714 2092.54 282.849 2085.09 282.849C2072.59 282.849 2062.89 287.138 2055.99 295.717C2049.09 304.296 2045.64 316.138 2045.64 331.245C2045.64 346.351 2049 358.287 2055.71 367.052C2062.43 375.631 2071.84 379.92 2083.97 379.92Z" fill="white"/>
<path d="M2241.17 403.978C2227.18 403.978 2214.87 401.088 2204.24 395.306C2193.61 389.525 2185.31 381.226 2179.35 370.409C2173.56 359.406 2170.67 346.351 2170.67 331.245C2170.67 316.138 2173.56 303.177 2179.35 292.36C2185.31 281.357 2193.52 272.965 2203.96 267.183C2214.41 261.402 2226.25 258.511 2239.49 258.511C2253.11 258.511 2264.67 261.309 2274.18 266.903C2283.69 272.498 2290.96 280.145 2296 289.843C2301.03 299.54 2303.55 310.544 2303.55 322.852C2303.55 326.209 2303.46 329.38 2303.27 332.364C2303.09 335.348 2302.81 337.959 2302.43 340.197H2189.98V317.257H2289.29L2274.46 321.733C2274.46 309.052 2271.29 299.354 2264.95 292.64C2258.61 285.74 2249.93 282.289 2238.93 282.289C2230.91 282.289 2223.92 284.154 2217.95 287.884C2211.98 291.614 2207.41 297.209 2204.24 304.669C2201.07 311.942 2199.49 320.894 2199.49 331.524C2199.49 341.968 2201.17 350.827 2204.52 358.1C2207.88 365.374 2212.64 370.875 2218.79 374.605C2224.94 378.335 2232.22 380.2 2240.61 380.2C2249.93 380.2 2257.49 378.428 2263.27 374.885C2269.05 371.341 2273.62 366.399 2276.98 360.058L2300.76 371.248C2297.4 377.962 2292.83 383.837 2287.05 388.872C2281.45 393.721 2274.74 397.451 2266.91 400.062C2259.07 402.673 2250.49 403.978 2241.17 403.978Z" fill="white"/>
<path d="M1980.96 197.07H1980.95C1967.35 197.07 1956.32 208.097 1956.32 221.699V221.709C1956.32 235.311 1967.35 246.338 1980.95 246.338H1980.96C1994.56 246.338 2005.59 235.311 2005.59 221.709V221.699C2005.59 208.097 1994.56 197.07 1980.96 197.07Z" fill="#C8BCFF"/>
</svg>
