<svg width="48" height="48" viewBox="0 0 48 48" fill="none" xmlns="http://www.w3.org/2000/svg">
<rect x="0.735291" y="0.763184" width="46.4735" height="46.4735" rx="17.5118" fill="#18002C"/>
<path d="M15.4823 15.8334H15.6507V15.665V3.58057V3.3929L15.4641 3.41317C12.3488 3.7516 9.44522 5.15307 7.24224 7.38164C5.03925 9.61022 3.6714 12.5298 3.36896 15.6488L3.35106 15.8334H3.53656H15.4823Z" stroke="#3F2B50" stroke-width="0.336765" stroke-miterlimit="10"/>
<path d="M30.2689 3.50635V3.33797H30.1005H17.4543H17.286V3.50635V15.6649V15.8333H17.4543H28.6417H28.7551L28.7977 15.7282C28.9225 15.4207 29.1077 15.1414 29.3423 14.9067C29.577 14.672 29.8563 14.4868 30.1639 14.3621L30.2689 14.3194V14.206V3.50635Z" stroke="#3F2B50" stroke-width="0.336765" stroke-miterlimit="10"/>
<path d="M44.4218 15.8334H44.6073L44.5894 15.6488C44.2803 12.4598 42.8574 9.48154 40.5708 7.23721C38.2842 4.99287 35.28 3.6259 32.0857 3.37632L31.9042 3.36214V3.54419V14.2062V14.3196L32.0094 14.3622C32.3171 14.4869 32.5966 14.672 32.8314 14.9066C33.0661 15.1413 33.2514 15.4207 33.3761 15.7283L33.4188 15.8334H33.5322H44.4218Z" stroke="#3F2B50" stroke-width="0.336765" stroke-miterlimit="10"/>
<path d="M30.2689 19.096V18.9826L30.1639 18.94C29.8563 18.8152 29.5769 18.6299 29.3422 18.3951C29.1076 18.1603 28.9224 17.8809 28.7977 17.5732L28.7551 17.4681H28.6417H17.4543H17.286V17.6365V29.0191V29.1324L17.3909 29.1751C17.7639 29.3267 18.0945 29.5668 18.3543 29.8744C18.614 30.1821 18.7952 30.5482 18.8822 30.9414L18.9061 31.0496L19.015 31.0704L30.0689 33.1832L30.2689 33.2215V33.0178V19.096Z" stroke="#3F2B50" stroke-width="0.336765" stroke-miterlimit="10"/>
<path d="M44.6508 17.6372V17.4688H44.4824H33.5349H33.4214L33.3788 17.5739C33.2541 17.8815 33.0688 18.1609 32.834 18.3956C32.5993 18.6303 32.3198 18.8154 32.0121 18.94L31.9069 18.9826V19.0961V33.3911V33.5303L32.0437 33.5565L43.6641 35.7791L43.8054 35.8061L43.8541 35.6708C44.382 34.2051 44.6515 32.6589 44.6508 31.1011C44.6508 31.101 44.6508 31.101 44.6508 31.101V17.6372Z" stroke="#3F2B50" stroke-width="0.336765" stroke-miterlimit="10"/>
<path d="M13.9897 30.7313H14.107L14.1477 30.6212C14.2725 30.2829 14.4696 29.976 14.7253 29.7219L14.7262 29.721C14.9595 29.4857 15.2382 29.3003 15.5454 29.1759L15.6506 29.1334V29.0199V17.6372V17.4688H15.4822H3.47858H3.31019V17.6372V30.5629V30.7313H3.47858H13.9897Z" stroke="#3F2B50" stroke-width="0.336765" stroke-miterlimit="10"/>
<path d="M15.6506 33.9088V33.7954L15.5455 33.7528C15.0515 33.5524 14.6353 33.1981 14.3586 32.7424L14.3094 32.6615H14.2147H3.59106H3.3987L3.42416 32.8521C3.82792 35.8749 5.23345 38.6749 7.41605 40.8048C9.59866 42.9346 12.4323 44.2712 15.464 44.6008L15.6506 44.6211V44.4334V33.9088Z" stroke="#3F2B50" stroke-width="0.336765" stroke-miterlimit="10"/>
<path d="M43.014 37.544L43.1235 37.3417L42.8975 37.2985L18.7502 32.6828L18.6366 32.6611L18.5756 32.7592C18.2973 33.2065 17.8848 33.5543 17.3969 33.753L17.292 33.7957V33.909V44.5076V44.676H17.4604H31.0792L31.0796 44.676C33.5262 44.6696 35.9259 44.0039 38.0261 42.7488C40.1263 41.4937 41.8494 39.6957 43.014 37.544Z" stroke="#3F2B50" stroke-width="0.336765" stroke-miterlimit="10"/>
<path d="M15.4823 3.58057V15.665H3.53656C3.83526 12.5846 5.18622 9.70106 7.36199 7.50002C9.53776 5.29898 12.4055 3.91482 15.4823 3.58057Z" fill="#F6F2FF"/>
<path d="M13.9897 30.5629H3.47858V17.6372H15.4822V29.0199C15.1539 29.1528 14.856 29.351 14.6066 29.6025C14.3335 29.8739 14.123 30.2017 13.9897 30.5629Z" fill="#C8BCFF"/>
<path d="M15.4822 33.9088V44.4334C12.488 44.1078 9.6893 42.7878 7.53365 40.6842C5.378 38.5807 3.98983 35.8152 3.59106 32.8298H14.2147C14.5102 33.3164 14.9547 33.6948 15.4822 33.9088Z" fill="#8400F2"/>
<path d="M42.8659 37.4639C41.7157 39.5889 40.014 41.3647 37.9397 42.6042C35.8655 43.8438 33.4955 44.5013 31.0792 44.5076H17.4604V33.909C17.9812 33.6969 18.4215 33.3256 18.7185 32.8481L42.8659 37.4639Z" fill="#FFDA7A"/>
<path d="M30.1005 3.50635V14.206C29.7722 14.3393 29.4739 14.5371 29.2233 14.7876C28.9727 15.0382 28.7749 15.3365 28.6417 15.6649H17.4543V3.50635H30.1005Z" fill="#FFDA7A"/>
<path d="M44.4218 15.665H33.5322C33.3989 15.3366 33.2011 15.0381 32.9504 14.7875C32.6997 14.5369 32.4012 14.3393 32.0726 14.2062V3.54419C35.2274 3.79069 38.1945 5.14077 40.4529 7.35738C42.7113 9.57398 44.1165 12.5154 44.4218 15.665Z" fill="#C8BCFF"/>
<path d="M30.1005 19.096V33.0178L19.0466 30.905C18.9537 30.4852 18.7603 30.0943 18.4829 29.7658C18.2056 29.4373 17.8526 29.181 17.4543 29.0191V17.6365H28.6417C28.7748 17.965 28.9725 18.2634 29.2231 18.5142C29.4737 18.7649 29.7721 18.9627 30.1005 19.096Z" fill="#8400F2"/>
<path d="M44.4824 17.6372V31.1011C44.4831 32.6394 44.217 34.1663 43.6957 35.6137L32.0753 33.3911V19.0961C32.4039 18.963 32.7024 18.7653 32.9531 18.5147C33.2038 18.2641 33.4016 17.9657 33.5349 17.6372H44.4824Z" fill="#F6F2FF"/>
<path d="M16.4689 29.7183H16.4683C15.5045 29.7183 14.7231 30.4996 14.7231 31.4634V31.464C14.7231 32.4278 15.5045 33.2092 16.4683 33.2092H16.4689C17.4327 33.2092 18.214 32.4278 18.214 31.464V31.4634C18.214 30.4996 17.4327 29.7183 16.4689 29.7183Z" fill="#FFDA7A"/>
<path d="M31.1547 14.906H31.154C30.1902 14.906 29.4089 15.6873 29.4089 16.6511V16.6518C29.4089 17.6156 30.1902 18.3969 31.154 18.3969H31.1547C32.1185 18.3969 32.8998 17.6156 32.8998 16.6518V16.6511C32.8998 15.6873 32.1185 14.906 31.1547 14.906Z" fill="#C8BCFF"/>
</svg>
