<svg width="197" height="49" viewBox="0 0 197 49" fill="none" xmlns="http://www.w3.org/2000/svg">
<rect x="5.79395" y="4.05591" width="39.9794" height="39.9794" rx="15.0647" fill="#18002C"/>
<path d="M18.4805 17.0203H18.6254V16.8754V6.47961V6.31817L18.4649 6.33561C15.7849 6.62675 13.2871 7.83238 11.392 9.74954C9.49681 11.6667 8.3201 14.1783 8.05992 16.8615L8.04452 17.0203H8.2041H18.4805Z" stroke="#3F2B50" stroke-width="0.289706" stroke-miterlimit="10"/>
<path d="M31.2006 6.41577V6.27092H31.0558H20.1768H20.0319V6.41577V16.8753V17.0202H20.1768H29.8008H29.8983L29.935 16.9298C30.0424 16.6652 30.2017 16.4249 30.4036 16.2231C30.6054 16.0212 30.8457 15.8619 31.1103 15.7545L31.2006 15.7178V15.6203V6.41577Z" stroke="#3F2B50" stroke-width="0.289706" stroke-miterlimit="10"/>
<path d="M43.3755 17.0202H43.535L43.5196 16.8614C43.2537 14.118 42.0297 11.5559 40.0626 9.6252C38.0956 7.69449 35.5111 6.51853 32.7632 6.30383L32.6071 6.29163V6.44824V15.6203V15.718L32.6976 15.7546C32.9622 15.8618 33.2027 16.021 33.4047 16.2229C33.6066 16.4248 33.766 16.6652 33.8733 16.9298L33.91 17.0202H34.0075H43.3755Z" stroke="#3F2B50" stroke-width="0.289706" stroke-miterlimit="10"/>
<path d="M31.2006 19.8269V19.7293L31.1103 19.6926C30.8457 19.5853 30.6053 19.4259 30.4034 19.2239C30.2016 19.022 30.0423 18.7815 29.935 18.5169L29.8984 18.4264H29.8008H20.1768H20.0319V18.5713V28.3633V28.4608L20.1222 28.4975C20.4431 28.628 20.7275 28.8345 20.9509 29.0991C21.1744 29.3638 21.3302 29.6788 21.4051 30.017L21.4257 30.1101L21.5193 30.128L31.0286 31.9456L31.2006 31.9785V31.8033V19.8269Z" stroke="#3F2B50" stroke-width="0.289706" stroke-miterlimit="10"/>
<path d="M43.5731 18.5719V18.427H43.4282H34.0105H33.9129L33.8762 18.5175C33.7689 18.7821 33.6095 19.0224 33.4076 19.2243C33.2056 19.4262 32.9652 19.5855 32.7005 19.6927L32.61 19.7293V19.8269V32.1243V32.2441L32.7277 32.2666L42.7243 34.1787L42.8458 34.2019L42.8878 34.0855C43.3418 32.8246 43.5737 31.4945 43.5731 30.1543C43.5731 30.1543 43.5731 30.1543 43.5731 30.1543V18.5719Z" stroke="#3F2B50" stroke-width="0.289706" stroke-miterlimit="10"/>
<path d="M17.1966 29.8362H17.2976L17.3325 29.7415C17.4399 29.4505 17.6095 29.1865 17.8295 28.9679L17.8302 28.9672C18.0309 28.7647 18.2707 28.6052 18.5349 28.4982L18.6254 28.4616V28.364V18.5719V18.427H18.4806H8.1543H8.00944V18.5719V29.6914V29.8362H8.1543H17.1966Z" stroke="#3F2B50" stroke-width="0.289706" stroke-miterlimit="10"/>
<path d="M18.6253 32.5699V32.4724L18.5349 32.4357C18.11 32.2633 17.7519 31.9585 17.5139 31.5665L17.4715 31.4969H17.39H8.25098H8.08549L8.1074 31.6609C8.45473 34.2612 9.66385 36.67 11.5415 38.5022C13.4191 40.3344 15.8568 41.4843 18.4648 41.7678L18.6253 41.7853V41.6238V32.5699Z" stroke="#3F2B50" stroke-width="0.289706" stroke-miterlimit="10"/>
<path d="M42.1644 35.697L42.2587 35.523L42.0643 35.4858L21.2912 31.5151L21.1935 31.4964L21.141 31.5808C20.9016 31.9656 20.5467 32.2649 20.127 32.4358L20.0368 32.4725V32.5699V41.6876V41.8324H20.1816H31.8973L31.8977 41.8324C34.0025 41.8269 36.0668 41.2542 37.8736 40.1745C39.6803 39.0948 41.1626 37.548 42.1644 35.697Z" stroke="#3F2B50" stroke-width="0.289706" stroke-miterlimit="10"/>
<path d="M18.4805 6.47961V16.8754H8.2041C8.46106 14.2254 9.62324 11.7448 11.495 9.85137C13.3667 7.9579 15.8337 6.76716 18.4805 6.47961Z" fill="#F6F2FF"/>
<path d="M17.1966 29.6914H8.1543V18.5719H18.4806V28.364C18.1981 28.4783 17.9419 28.6488 17.7273 28.8652C17.4924 29.0987 17.3113 29.3806 17.1966 29.6914Z" fill="#C8BCFF"/>
<path d="M18.4805 32.5699V41.6238C15.9046 41.3438 13.4971 40.2081 11.6426 38.3986C9.78821 36.589 8.59402 34.2099 8.25098 31.6417H17.39C17.6443 32.0603 18.0267 32.3858 18.4805 32.5699Z" fill="#8400F2"/>
<path d="M42.0371 35.6281C41.0476 37.4562 39.5836 38.9838 37.7993 40.0502C36.0149 41.1165 33.9761 41.6821 31.8973 41.6876H20.1816V32.5699C20.6296 32.3875 21.0085 32.0681 21.264 31.6573L42.0371 35.6281Z" fill="#FFDA7A"/>
<path d="M31.0558 6.41577V15.6203C30.7733 15.7349 30.5167 15.9051 30.3011 16.1206C30.0856 16.3362 29.9154 16.5928 29.8008 16.8753H20.1768V6.41577H31.0558Z" fill="#FFDA7A"/>
<path d="M43.3755 16.8754H34.0075C33.8929 16.5928 33.7227 16.336 33.5071 16.1205C33.2914 15.9049 33.0346 15.7348 32.752 15.6203V6.44824C35.4659 6.66029 38.0184 7.82172 39.9612 9.72858C41.904 11.6354 43.1128 14.1658 43.3755 16.8754Z" fill="#C8BCFF"/>
<path d="M31.0558 19.8269V31.8033L21.5465 29.9857C21.4666 29.6246 21.3002 29.2883 21.0616 29.0057C20.823 28.7231 20.5194 28.5026 20.1768 28.3633V18.5713H29.8008C29.9153 18.8539 30.0854 19.1106 30.301 19.3263C30.5166 19.542 30.7732 19.7122 31.0558 19.8269Z" fill="#8400F2"/>
<path d="M43.4282 18.5719V30.1543C43.4289 31.4778 43.1999 32.7913 42.7515 34.0364L32.7549 32.1243V19.8269C33.0375 19.7124 33.2943 19.5423 33.51 19.3268C33.7257 19.1112 33.8959 18.8545 34.0105 18.5719H43.4282Z" fill="#F6F2FF"/>
<path d="M19.329 28.9647H19.3284C18.4993 28.9647 17.8271 29.6369 17.8271 30.466V30.4666C17.8271 31.2957 18.4993 31.9678 19.3284 31.9678H19.329C20.1581 31.9678 20.8302 31.2957 20.8302 30.4666V30.466C20.8302 29.6369 20.1581 28.9647 19.329 28.9647Z" fill="#FFDA7A"/>
<path d="M31.9628 16.2223H31.9622C31.1331 16.2223 30.4609 16.8944 30.4609 17.7235V17.7241C30.4609 18.5532 31.1331 19.2254 31.9622 19.2254H31.9628C32.7919 19.2254 33.464 18.5532 33.464 17.7241V17.7235C33.464 16.8944 32.7919 16.2223 31.9628 16.2223Z" fill="#C8BCFF"/>
<path d="M65.2627 28.9963C64.9557 29.9175 64.4951 30.7005 63.881 31.3453C63.2668 31.9748 62.5452 32.4507 61.7162 32.7732C60.8871 33.0956 59.9736 33.2568 58.9757 33.2568C57.5171 33.2568 56.2505 32.942 55.1758 32.3126C54.1011 31.6831 53.272 30.7849 52.6886 29.6181C52.1052 28.4513 51.8135 27.0542 51.8135 25.4267C51.8135 23.7993 52.1052 22.4022 52.6886 21.2354C53.272 20.0685 54.1011 19.1704 55.1758 18.5409C56.2505 17.9114 57.5094 17.5967 58.9526 17.5967C59.9506 17.5967 60.8487 17.7349 61.6471 18.0112C62.4608 18.2876 63.1517 18.7021 63.7197 19.2548C64.2878 19.8075 64.7254 20.4984 65.0324 21.3275L62.7064 22.3638C62.3994 21.458 61.9541 20.7978 61.3707 20.3833C60.7873 19.9534 60.0273 19.7384 59.0908 19.7384C58.1543 19.7384 57.3329 19.9611 56.6266 20.4063C55.9204 20.8515 55.3677 21.4964 54.9685 22.3408C54.5847 23.1852 54.3928 24.2139 54.3928 25.4267C54.3928 26.6243 54.577 27.6529 54.9455 28.5127C55.314 29.3571 55.8436 30.0019 56.5345 30.4472C57.2254 30.8924 58.0545 31.115 59.0217 31.115C59.9583 31.115 60.7643 30.8771 61.4398 30.4011C62.1307 29.9098 62.622 29.1806 62.9137 28.2133L65.2627 28.9963Z" fill="#18002C"/>
<path d="M73.1064 25.634C73.1064 24.8664 72.8915 24.2753 72.4616 23.8607C72.0471 23.4308 71.4713 23.2159 70.7344 23.2159C70.0435 23.2159 69.4524 23.3771 68.9611 23.6995C68.4698 24.0219 68.109 24.5439 67.8787 25.2655L65.8061 24.3904C66.0978 23.4539 66.6658 22.7016 67.5103 22.1335C68.37 21.5655 69.4754 21.2814 70.8265 21.2814C71.7477 21.2814 72.5614 21.435 73.2676 21.742C73.9739 22.0337 74.5266 22.479 74.9258 23.0777C75.3403 23.6765 75.5476 24.4441 75.5476 25.3807V30.5163C75.5476 31.0843 75.8316 31.3684 76.3997 31.3684C76.676 31.3684 76.9447 31.33 77.2057 31.2532L77.0675 32.9574C76.7144 33.1263 76.2692 33.2107 75.7318 33.2107C75.2405 33.2107 74.7953 33.1263 74.3961 32.9574C74.0123 32.7732 73.7052 32.5045 73.4749 32.1514C73.26 31.7829 73.1525 31.33 73.1525 30.7926V30.6314L73.6591 30.6084C73.521 31.2072 73.2369 31.7061 72.8071 32.1053C72.3772 32.4891 71.8782 32.7808 71.3101 32.9804C70.7421 33.1647 70.1663 33.2568 69.5829 33.2568C68.8613 33.2568 68.2088 33.1416 67.6254 32.9113C67.0573 32.681 66.6044 32.3356 66.2667 31.875C65.9443 31.3991 65.783 30.8157 65.783 30.1248C65.783 29.265 66.0594 28.5588 66.6121 28.006C67.1802 27.4533 67.9785 27.0772 69.0072 26.8776L73.4749 26.0025L73.4519 27.7297L70.2047 28.3976C69.5599 28.5204 69.0763 28.6969 68.7539 28.9272C68.4314 29.1575 68.2702 29.4953 68.2702 29.9405C68.2702 30.3704 68.4314 30.7159 68.7539 30.9769C69.0916 31.2225 69.5369 31.3453 70.0896 31.3453C70.4734 31.3453 70.8419 31.2993 71.195 31.2072C71.5635 31.115 71.8935 30.9692 72.1853 30.7696C72.477 30.5547 72.6996 30.286 72.8531 29.9636C73.022 29.6258 73.1064 29.2266 73.1064 28.766V25.634Z" fill="#18002C"/>
<path d="M77.9729 33.0265V21.5117H80.1607L80.2758 23.4462C80.675 22.7093 81.2047 22.1642 81.8649 21.8111C82.5404 21.458 83.2543 21.2814 84.0066 21.2814C84.8357 21.2814 85.5956 21.4733 86.2865 21.8572C86.9928 22.2256 87.5224 22.786 87.8756 23.5383C88.1212 23.0317 88.459 22.6095 88.8889 22.2717C89.3187 21.9339 89.7947 21.6883 90.3167 21.5348C90.8387 21.3659 91.353 21.2814 91.8597 21.2814C92.5966 21.2814 93.2875 21.435 93.9323 21.742C94.5772 22.0491 95.0992 22.5173 95.4983 23.1468C95.8975 23.7763 96.0971 24.5823 96.0971 25.5649V33.0265H93.6329V25.9564C93.6329 25.0199 93.4103 24.3444 92.9651 23.9298C92.5199 23.5153 91.9518 23.308 91.2609 23.308C90.7235 23.308 90.2246 23.4385 89.764 23.6995C89.3187 23.9605 88.958 24.352 88.6816 24.874C88.4052 25.3807 88.2671 26.0102 88.2671 26.7625V33.0265H85.8029V25.9564C85.8029 25.0199 85.5803 24.3444 85.135 23.9298C84.6898 23.5153 84.1217 23.308 83.4309 23.308C82.9703 23.308 82.5097 23.4308 82.0491 23.6765C81.5885 23.9221 81.2047 24.306 80.8976 24.828C80.5906 25.35 80.437 26.0409 80.437 26.9006V33.0265H77.9729Z" fill="#18002C"/>
<path d="M98.2209 37.8627V21.5117H100.409L100.593 24.7359L100.27 24.3444C100.455 23.7456 100.739 23.2159 101.123 22.7553C101.506 22.2947 101.982 21.9339 102.55 21.6729C103.134 21.4119 103.771 21.2814 104.462 21.2814C105.398 21.2814 106.25 21.5194 107.018 21.9953C107.786 22.4713 108.392 23.1545 108.837 24.045C109.283 24.9201 109.505 25.9871 109.505 27.2461C109.505 28.505 109.275 29.5874 108.814 30.4932C108.369 31.3837 107.755 32.0669 106.972 32.5429C106.204 33.0188 105.345 33.2568 104.393 33.2568C103.41 33.2568 102.573 33.0035 101.883 32.4968C101.192 31.9748 100.7 31.3146 100.409 30.5163L100.685 30.1248V37.8627H98.2209ZM103.863 31.2532C104.861 31.2532 105.636 30.9001 106.189 30.1939C106.757 29.4876 107.041 28.5127 107.041 27.2691C107.041 26.0255 106.765 25.0506 106.212 24.3444C105.659 23.6228 104.892 23.262 103.909 23.262C103.264 23.262 102.696 23.4308 102.205 23.7686C101.729 24.091 101.353 24.5516 101.077 25.1504C100.816 25.7338 100.685 26.44 100.685 27.2691C100.685 28.0828 100.816 28.7891 101.077 29.3878C101.338 29.9866 101.706 30.4472 102.182 30.7696C102.658 31.092 103.218 31.2532 103.863 31.2532Z" fill="#18002C"/>
<path d="M115.146 33.2568C114.394 33.2568 113.696 33.1186 113.051 32.8423C112.421 32.5659 111.915 32.1207 111.531 31.5065C111.147 30.8924 110.955 30.0941 110.955 29.1115V21.5117H113.419V28.4897C113.419 29.5337 113.642 30.2553 114.087 30.6544C114.532 31.0383 115.154 31.2302 115.953 31.2302C116.336 31.2302 116.705 31.1688 117.058 31.0459C117.426 30.9078 117.757 30.7005 118.048 30.4241C118.34 30.1324 118.563 29.764 118.716 29.3187C118.885 28.8735 118.969 28.3515 118.969 27.7527V21.5117H121.434V33.0265H119.269L119.154 31.1611C118.754 31.8827 118.217 32.4124 117.542 32.7501C116.866 33.0879 116.068 33.2568 115.146 33.2568Z" fill="#18002C"/>
<path d="M128.047 33.2568C126.895 33.2568 125.844 33.0342 124.892 32.5889C123.94 32.1437 123.188 31.5142 122.635 30.7005L124.339 29.2266C124.677 29.8561 125.16 30.3627 125.79 30.7466C126.435 31.115 127.202 31.2993 128.093 31.2993C128.799 31.2993 129.359 31.1764 129.774 30.9308C130.189 30.6852 130.396 30.3397 130.396 29.8945C130.396 29.6028 130.296 29.3494 130.096 29.1345C129.912 28.9042 129.551 28.7276 129.014 28.6048L126.596 28.0982C125.368 27.8525 124.493 27.461 123.971 26.9237C123.449 26.371 123.188 25.6724 123.188 24.828C123.188 24.1985 123.372 23.6151 123.74 23.0777C124.109 22.5404 124.646 22.1105 125.352 21.7881C126.074 21.4503 126.934 21.2814 127.932 21.2814C129.083 21.2814 130.066 21.4887 130.879 21.9032C131.693 22.3024 132.315 22.8781 132.745 23.6304L131.041 25.0583C130.749 24.4441 130.319 23.9912 129.751 23.6995C129.183 23.3925 128.592 23.2389 127.978 23.2389C127.486 23.2389 127.064 23.3003 126.711 23.4232C126.358 23.546 126.089 23.7149 125.905 23.9298C125.721 24.1448 125.629 24.3981 125.629 24.6898C125.629 24.9969 125.744 25.2655 125.974 25.4958C126.204 25.7261 126.619 25.9027 127.218 26.0255L129.843 26.5782C130.949 26.7932 131.724 27.1616 132.169 27.6836C132.63 28.1903 132.86 28.8121 132.86 29.549C132.86 30.286 132.668 30.9385 132.284 31.5065C131.9 32.0592 131.348 32.4891 130.626 32.7962C129.905 33.1033 129.045 33.2568 128.047 33.2568Z" fill="#18002C"/>
<path d="M140.766 33.2568C139.338 33.2568 138.102 32.942 137.058 32.3126C136.014 31.6831 135.2 30.7926 134.617 29.6411C134.034 28.4743 133.742 27.0695 133.742 25.4267C133.742 23.8147 134.041 22.4252 134.64 21.2584C135.254 20.0916 136.114 19.1934 137.219 18.5639C138.34 17.9191 139.622 17.5967 141.065 17.5967C142.647 17.5967 143.921 17.8884 144.888 18.4718C145.871 19.0552 146.654 19.9611 147.237 21.1893L144.957 22.2717C144.666 21.4273 144.182 20.7978 143.506 20.3833C142.846 19.9534 142.04 19.7384 141.088 19.7384C140.136 19.7384 139.3 19.9611 138.578 20.4063C137.872 20.8515 137.319 21.504 136.92 22.3638C136.521 23.2082 136.321 24.2292 136.321 25.4267C136.321 26.6396 136.498 27.676 136.851 28.5357C137.204 29.3801 137.734 30.025 138.44 30.4702C139.162 30.9154 140.044 31.1381 141.088 31.1381C141.656 31.1381 142.186 31.069 142.677 30.9308C143.169 30.7773 143.599 30.5623 143.967 30.286C144.336 29.9943 144.62 29.6335 144.819 29.2036C145.034 28.7583 145.142 28.2363 145.142 27.6376V27.2H140.72V25.1964H147.329V33.0265H145.487L145.349 29.9636L145.809 30.1939C145.441 31.1611 144.827 31.9134 143.967 32.4507C143.123 32.9881 142.056 33.2568 140.766 33.2568Z" fill="#18002C"/>
<path d="M153.401 33.2568C152.648 33.2568 151.95 33.1186 151.305 32.8423C150.676 32.5659 150.169 32.1207 149.785 31.5065C149.401 30.8924 149.209 30.0941 149.209 29.1115V21.5117H151.673V28.4897C151.673 29.5337 151.896 30.2553 152.341 30.6544C152.787 31.0383 153.408 31.2302 154.207 31.2302C154.591 31.2302 154.959 31.1688 155.312 31.0459C155.681 30.9078 156.011 30.7005 156.302 30.4241C156.594 30.1324 156.817 29.764 156.97 29.3187C157.139 28.8735 157.224 28.3515 157.224 27.7527V21.5117H159.688V33.0265H157.523L157.408 31.1611C157.009 31.8827 156.471 32.4124 155.796 32.7501C155.12 33.0879 154.322 33.2568 153.401 33.2568Z" fill="#18002C"/>
<path d="M164.39 21.5117V33.0265H161.925V21.5117H164.39Z" fill="#18002C"/>
<path d="M171.055 33.2568C170.103 33.2568 169.235 33.0188 168.452 32.5429C167.685 32.0669 167.078 31.3837 166.633 30.4932C166.188 29.6028 165.965 28.5357 165.965 27.2921C165.965 26.0025 166.203 24.9124 166.679 24.0219C167.155 23.1315 167.792 22.4559 168.59 21.9953C169.389 21.5194 170.264 21.2814 171.216 21.2814C172.198 21.2814 173.027 21.5501 173.703 22.0875C174.379 22.6248 174.831 23.3234 175.062 24.1831L174.785 24.4365V16.3301H177.25V33.0265H175.062L174.878 29.8945L175.2 29.9175C175.092 30.6084 174.839 31.2072 174.44 31.7138C174.041 32.2051 173.542 32.5889 172.943 32.8653C172.36 33.1263 171.73 33.2568 171.055 33.2568ZM171.584 31.2762C172.244 31.2762 172.813 31.1074 173.288 30.7696C173.764 30.4318 174.133 29.9559 174.394 29.3418C174.655 28.7276 174.785 27.9907 174.785 27.1309C174.785 26.3326 174.655 25.6494 174.394 25.0813C174.133 24.4979 173.764 24.0526 173.288 23.7456C172.828 23.4385 172.291 23.285 171.676 23.285C170.648 23.285 169.849 23.6381 169.281 24.3444C168.713 25.0506 168.429 26.0255 168.429 27.2691C168.429 28.5127 168.706 29.4953 169.258 30.2169C169.811 30.9231 170.586 31.2762 171.584 31.2762Z" fill="#18002C"/>
<path d="M184.526 33.2568C183.374 33.2568 182.361 33.0188 181.486 32.5429C180.611 32.0669 179.928 31.3837 179.436 30.4932C178.96 29.5874 178.722 28.5127 178.722 27.2691C178.722 26.0255 178.96 24.9585 179.436 24.068C179.928 23.1622 180.603 22.4713 181.463 21.9953C182.323 21.5194 183.298 21.2814 184.388 21.2814C185.508 21.2814 186.46 21.5117 187.243 21.9723C188.026 22.4329 188.625 23.0624 189.04 23.8607C189.454 24.6591 189.661 25.5649 189.661 26.5782C189.661 26.8546 189.654 27.1156 189.638 27.3612C189.623 27.6069 189.6 27.8218 189.569 28.006H180.311V26.1176H188.487L187.266 26.4861C187.266 25.4421 187.005 24.6437 186.483 24.091C185.961 23.523 185.247 23.2389 184.342 23.2389C183.681 23.2389 183.106 23.3925 182.614 23.6995C182.123 24.0066 181.747 24.4672 181.486 25.0813C181.225 25.6801 181.094 26.417 181.094 27.2921C181.094 28.1519 181.233 28.8812 181.509 29.4799C181.785 30.0787 182.177 30.5316 182.683 30.8387C183.19 31.1457 183.789 31.2993 184.48 31.2993C185.247 31.2993 185.869 31.1534 186.345 30.8617C186.821 30.57 187.197 30.1631 187.474 29.6411L189.431 30.5623C189.155 31.115 188.779 31.5987 188.303 32.0132C187.842 32.4124 187.289 32.7194 186.645 32.9344C186 33.1493 185.293 33.2568 184.526 33.2568Z" fill="#18002C"/>
<path d="M163.105 16.2235H163.105C161.985 16.2235 161.077 17.1313 161.077 18.2511V18.2518C161.077 19.3716 161.985 20.2794 163.105 20.2794H163.105C164.225 20.2794 165.133 19.3716 165.133 18.2518V18.2511C165.133 17.1313 164.225 16.2235 163.105 16.2235Z" fill="#C8BCFF"/>
</svg>
